<mxfile host="app.diagrams.net" agent="Mozilla/5.0 (Windows NT 10.0; Win64; x64) AppleWebKit/537.36 (KHTML, like Gecko) Chrome/129.0.0.0 Safari/537.36" version="24.7.14">
  <diagram id="C5RBs43oDa-KdzZeNtuy" name="Page-1">
    <mxGraphModel dx="1674" dy="752" grid="1" gridSize="10" guides="1" tooltips="1" connect="1" arrows="1" fold="1" page="1" pageScale="1" pageWidth="827" pageHeight="1169" math="0" shadow="0">
      <root>
        <mxCell id="WIyWlLk6GJQsqaUBKTNV-0" />
        <mxCell id="WIyWlLk6GJQsqaUBKTNV-1" parent="WIyWlLk6GJQsqaUBKTNV-0" />
        <mxCell id="11dYOGdVYy4yMLOdj7sQ-3" style="edgeStyle=orthogonalEdgeStyle;rounded=0;orthogonalLoop=1;jettySize=auto;html=1;entryX=0.5;entryY=0;entryDx=0;entryDy=0;" edge="1" parent="WIyWlLk6GJQsqaUBKTNV-1" source="11dYOGdVYy4yMLOdj7sQ-0" target="11dYOGdVYy4yMLOdj7sQ-1">
          <mxGeometry relative="1" as="geometry" />
        </mxCell>
        <mxCell id="11dYOGdVYy4yMLOdj7sQ-0" value="Start" style="strokeWidth=2;html=1;shape=mxgraph.flowchart.start_2;whiteSpace=wrap;" vertex="1" parent="WIyWlLk6GJQsqaUBKTNV-1">
          <mxGeometry x="270" y="30" width="100" height="100" as="geometry" />
        </mxCell>
        <mxCell id="11dYOGdVYy4yMLOdj7sQ-8" style="edgeStyle=orthogonalEdgeStyle;rounded=0;orthogonalLoop=1;jettySize=auto;html=1;entryX=0.5;entryY=0;entryDx=0;entryDy=0;" edge="1" parent="WIyWlLk6GJQsqaUBKTNV-1" source="11dYOGdVYy4yMLOdj7sQ-1" target="11dYOGdVYy4yMLOdj7sQ-7">
          <mxGeometry relative="1" as="geometry" />
        </mxCell>
        <mxCell id="11dYOGdVYy4yMLOdj7sQ-1" value="Introduce a positive number:" style="html=1;strokeWidth=2;shape=manualInput;whiteSpace=wrap;rounded=1;size=26;arcSize=11;" vertex="1" parent="WIyWlLk6GJQsqaUBKTNV-1">
          <mxGeometry x="260" y="180" width="120" height="80" as="geometry" />
        </mxCell>
        <mxCell id="11dYOGdVYy4yMLOdj7sQ-12" style="edgeStyle=orthogonalEdgeStyle;rounded=0;orthogonalLoop=1;jettySize=auto;html=1;entryX=0.5;entryY=0;entryDx=0;entryDy=0;" edge="1" parent="WIyWlLk6GJQsqaUBKTNV-1" source="11dYOGdVYy4yMLOdj7sQ-4" target="11dYOGdVYy4yMLOdj7sQ-6">
          <mxGeometry relative="1" as="geometry" />
        </mxCell>
        <mxCell id="11dYOGdVYy4yMLOdj7sQ-31" value="Yes" style="edgeLabel;html=1;align=center;verticalAlign=middle;resizable=0;points=[];" vertex="1" connectable="0" parent="11dYOGdVYy4yMLOdj7sQ-12">
          <mxGeometry x="-0.72" y="-4" relative="1" as="geometry">
            <mxPoint as="offset" />
          </mxGeometry>
        </mxCell>
        <mxCell id="11dYOGdVYy4yMLOdj7sQ-4" value="Is input greater than 0?" style="strokeWidth=2;html=1;shape=mxgraph.flowchart.decision;whiteSpace=wrap;" vertex="1" parent="WIyWlLk6GJQsqaUBKTNV-1">
          <mxGeometry x="235" y="490" width="170" height="140" as="geometry" />
        </mxCell>
        <mxCell id="11dYOGdVYy4yMLOdj7sQ-14" style="edgeStyle=orthogonalEdgeStyle;rounded=0;orthogonalLoop=1;jettySize=auto;html=1;entryX=0.5;entryY=0;entryDx=0;entryDy=0;" edge="1" parent="WIyWlLk6GJQsqaUBKTNV-1" source="11dYOGdVYy4yMLOdj7sQ-6" target="11dYOGdVYy4yMLOdj7sQ-13">
          <mxGeometry relative="1" as="geometry" />
        </mxCell>
        <mxCell id="11dYOGdVYy4yMLOdj7sQ-6" value="result = input * multiple" style="rounded=1;whiteSpace=wrap;html=1;absoluteArcSize=1;arcSize=14;strokeWidth=2;" vertex="1" parent="WIyWlLk6GJQsqaUBKTNV-1">
          <mxGeometry x="270" y="660" width="100" height="100" as="geometry" />
        </mxCell>
        <mxCell id="11dYOGdVYy4yMLOdj7sQ-7" value="multiplo = 1&lt;div&gt;input = keyboard.nextInt&lt;/div&gt;" style="rounded=1;whiteSpace=wrap;html=1;absoluteArcSize=1;arcSize=14;strokeWidth=2;" vertex="1" parent="WIyWlLk6GJQsqaUBKTNV-1">
          <mxGeometry x="270" y="310" width="100" height="100" as="geometry" />
        </mxCell>
        <mxCell id="11dYOGdVYy4yMLOdj7sQ-9" value="Input is defined by what integer is introduced in the keyboard" style="strokeWidth=2;html=1;shape=mxgraph.flowchart.annotation_2;align=left;labelPosition=right;pointerEvents=1;" vertex="1" parent="WIyWlLk6GJQsqaUBKTNV-1">
          <mxGeometry x="370" y="310" width="50" height="100" as="geometry" />
        </mxCell>
        <mxCell id="11dYOGdVYy4yMLOdj7sQ-10" style="edgeStyle=orthogonalEdgeStyle;rounded=0;orthogonalLoop=1;jettySize=auto;html=1;entryX=0.5;entryY=0;entryDx=0;entryDy=0;entryPerimeter=0;" edge="1" parent="WIyWlLk6GJQsqaUBKTNV-1" source="11dYOGdVYy4yMLOdj7sQ-7" target="11dYOGdVYy4yMLOdj7sQ-4">
          <mxGeometry relative="1" as="geometry" />
        </mxCell>
        <mxCell id="11dYOGdVYy4yMLOdj7sQ-20" style="edgeStyle=orthogonalEdgeStyle;rounded=0;orthogonalLoop=1;jettySize=auto;html=1;entryX=0.5;entryY=0;entryDx=0;entryDy=0;" edge="1" parent="WIyWlLk6GJQsqaUBKTNV-1" source="11dYOGdVYy4yMLOdj7sQ-13" target="11dYOGdVYy4yMLOdj7sQ-18">
          <mxGeometry relative="1" as="geometry" />
        </mxCell>
        <mxCell id="11dYOGdVYy4yMLOdj7sQ-13" value="System.out.println&lt;div&gt;input * multiple = result&lt;/div&gt;" style="shape=parallelogram;html=1;strokeWidth=2;perimeter=parallelogramPerimeter;whiteSpace=wrap;rounded=1;arcSize=12;size=0.23;" vertex="1" parent="WIyWlLk6GJQsqaUBKTNV-1">
          <mxGeometry x="225" y="850" width="190" height="90" as="geometry" />
        </mxCell>
        <mxCell id="11dYOGdVYy4yMLOdj7sQ-15" value="Multiplication displayed in screen" style="strokeWidth=2;html=1;shape=mxgraph.flowchart.annotation_2;align=left;labelPosition=right;pointerEvents=1;" vertex="1" parent="WIyWlLk6GJQsqaUBKTNV-1">
          <mxGeometry x="414" y="845" width="50" height="100" as="geometry" />
        </mxCell>
        <mxCell id="11dYOGdVYy4yMLOdj7sQ-22" style="edgeStyle=orthogonalEdgeStyle;rounded=0;orthogonalLoop=1;jettySize=auto;html=1;" edge="1" parent="WIyWlLk6GJQsqaUBKTNV-1" source="11dYOGdVYy4yMLOdj7sQ-16">
          <mxGeometry relative="1" as="geometry">
            <mxPoint x="320" y="280" as="targetPoint" />
            <Array as="points">
              <mxPoint x="170" y="1180" />
              <mxPoint x="170" y="280" />
            </Array>
          </mxGeometry>
        </mxCell>
        <mxCell id="11dYOGdVYy4yMLOdj7sQ-23" value="Yes" style="edgeLabel;html=1;align=center;verticalAlign=middle;resizable=0;points=[];" vertex="1" connectable="0" parent="11dYOGdVYy4yMLOdj7sQ-22">
          <mxGeometry x="-0.9045" y="-3" relative="1" as="geometry">
            <mxPoint as="offset" />
          </mxGeometry>
        </mxCell>
        <mxCell id="11dYOGdVYy4yMLOdj7sQ-36" style="edgeStyle=orthogonalEdgeStyle;rounded=0;orthogonalLoop=1;jettySize=auto;html=1;entryX=1;entryY=0.5;entryDx=0;entryDy=0;" edge="1" parent="WIyWlLk6GJQsqaUBKTNV-1" source="11dYOGdVYy4yMLOdj7sQ-16" target="11dYOGdVYy4yMLOdj7sQ-6">
          <mxGeometry relative="1" as="geometry">
            <Array as="points">
              <mxPoint x="760" y="1180" />
              <mxPoint x="760" y="710" />
            </Array>
          </mxGeometry>
        </mxCell>
        <mxCell id="11dYOGdVYy4yMLOdj7sQ-37" value="No" style="edgeLabel;html=1;align=center;verticalAlign=middle;resizable=0;points=[];" vertex="1" connectable="0" parent="11dYOGdVYy4yMLOdj7sQ-36">
          <mxGeometry x="-0.9504" y="1" relative="1" as="geometry">
            <mxPoint as="offset" />
          </mxGeometry>
        </mxCell>
        <mxCell id="11dYOGdVYy4yMLOdj7sQ-16" value="Is multiple greater than 10?" style="strokeWidth=2;html=1;shape=mxgraph.flowchart.decision;whiteSpace=wrap;" vertex="1" parent="WIyWlLk6GJQsqaUBKTNV-1">
          <mxGeometry x="270" y="1130" width="100" height="100" as="geometry" />
        </mxCell>
        <mxCell id="11dYOGdVYy4yMLOdj7sQ-18" value="++multiple" style="rounded=1;whiteSpace=wrap;html=1;absoluteArcSize=1;arcSize=14;strokeWidth=2;" vertex="1" parent="WIyWlLk6GJQsqaUBKTNV-1">
          <mxGeometry x="270" y="990" width="100" height="100" as="geometry" />
        </mxCell>
        <mxCell id="11dYOGdVYy4yMLOdj7sQ-19" value="Adds +1 to the multiple everytime it does the multiplication" style="strokeWidth=2;html=1;shape=mxgraph.flowchart.annotation_2;align=left;labelPosition=right;pointerEvents=1;" vertex="1" parent="WIyWlLk6GJQsqaUBKTNV-1">
          <mxGeometry x="370" y="990" width="50" height="100" as="geometry" />
        </mxCell>
        <mxCell id="11dYOGdVYy4yMLOdj7sQ-21" style="edgeStyle=orthogonalEdgeStyle;rounded=0;orthogonalLoop=1;jettySize=auto;html=1;entryX=0.5;entryY=0;entryDx=0;entryDy=0;entryPerimeter=0;" edge="1" parent="WIyWlLk6GJQsqaUBKTNV-1" source="11dYOGdVYy4yMLOdj7sQ-18" target="11dYOGdVYy4yMLOdj7sQ-16">
          <mxGeometry relative="1" as="geometry" />
        </mxCell>
        <mxCell id="11dYOGdVYy4yMLOdj7sQ-39" value="END" style="strokeWidth=2;html=1;shape=mxgraph.flowchart.terminator;whiteSpace=wrap;" vertex="1" parent="WIyWlLk6GJQsqaUBKTNV-1">
          <mxGeometry x="270" y="1270" width="100" height="60" as="geometry" />
        </mxCell>
        <mxCell id="11dYOGdVYy4yMLOdj7sQ-40" style="edgeStyle=orthogonalEdgeStyle;rounded=0;orthogonalLoop=1;jettySize=auto;html=1;entryX=0.5;entryY=0;entryDx=0;entryDy=0;entryPerimeter=0;" edge="1" parent="WIyWlLk6GJQsqaUBKTNV-1" source="11dYOGdVYy4yMLOdj7sQ-4" target="11dYOGdVYy4yMLOdj7sQ-39">
          <mxGeometry relative="1" as="geometry">
            <Array as="points">
              <mxPoint x="810" y="560" />
              <mxPoint x="810" y="1270" />
            </Array>
          </mxGeometry>
        </mxCell>
        <mxCell id="11dYOGdVYy4yMLOdj7sQ-41" value="No" style="edgeLabel;html=1;align=center;verticalAlign=middle;resizable=0;points=[];" vertex="1" connectable="0" parent="11dYOGdVYy4yMLOdj7sQ-40">
          <mxGeometry x="-0.9651" y="2" relative="1" as="geometry">
            <mxPoint as="offset" />
          </mxGeometry>
        </mxCell>
      </root>
    </mxGraphModel>
  </diagram>
</mxfile>
